<?xml version="1.0" encoding="UTF-8" standalone="no"?>
<svg
   height="351"
   viewBox="0 0 304 351"
   width="304"
   version="1.1"
   id="svg378"
   sodipodi:docname="spire-helm.svg"
   inkscape:version="1.3 (0e150ed6c4, 2023-07-21)"
   xmlns:inkscape="http://www.inkscape.org/namespaces/inkscape"
   xmlns:sodipodi="http://sodipodi.sourceforge.net/DTD/sodipodi-0.dtd"
   xmlns:xlink="http://www.w3.org/1999/xlink"
   xmlns="http://www.w3.org/2000/svg"
   xmlns:svg="http://www.w3.org/2000/svg"
   xmlns:rdf="http://www.w3.org/1999/02/22-rdf-syntax-ns#"
   xmlns:cc="http://creativecommons.org/ns#"
   xmlns:dc="http://purl.org/dc/elements/1.1/">
  <title
     id="title1">SPIRE and Helm Together</title>
  <metadata
     id="metadata384">
    <rdf:RDF>
      <cc:Work
         rdf:about="">
        <dc:format>image/svg+xml</dc:format>
        <dc:type
           rdf:resource="http://purl.org/dc/dcmitype/StillImage" />
        <dc:creator>
          <cc:Agent>
            <dc:title>Edwin Buck</dc:title>
          </cc:Agent>
        </dc:creator>
        <dc:title>SPIRE and Helm Together</dc:title>
        <dc:rights>
          <cc:Agent>
            <dc:title>Released to the SPIRE community</dc:title>
          </cc:Agent>
        </dc:rights>
      </cc:Work>
    </rdf:RDF>
  </metadata>
  <defs
     id="defs382">
    <linearGradient
       inkscape:collect="always"
       id="linearGradient3968">
      <stop
         style="stop-color:#99ca3e;stop-opacity:1"
         offset="0"
         id="stop3964" />
      <stop
         style="stop-color:#0eb0d2;stop-opacity:1"
         offset="1"
         id="stop3966" />
    </linearGradient>
    <linearGradient
       inkscape:collect="always"
       xlink:href="#linearGradient3968"
       id="linearGradient3970"
       x1="240.81235"
       y1="62.515732"
       x2="90.422386"
       y2="282.64059"
       gradientUnits="userSpaceOnUse"
       gradientTransform="matrix(0.6561,0,0,0.6561,50.850422,57.748117)" />
  </defs>
  <sodipodi:namedview
     pagecolor="#ffffff"
     bordercolor="#666666"
     borderopacity="1"
     objecttolerance="10"
     gridtolerance="10"
     guidetolerance="10"
     inkscape:pageopacity="0"
     inkscape:pageshadow="2"
     inkscape:window-width="2239"
     inkscape:window-height="1242"
     id="namedview380"
     showgrid="false"
     inkscape:zoom="1.0153328"
     inkscape:cx="158.07625"
     inkscape:cy="119.17275"
     inkscape:window-x="26"
     inkscape:window-y="23"
     inkscape:window-maximized="0"
     inkscape:current-layer="svg378"
     inkscape:document-rotation="0"
     inkscape:snap-nodes="true"
     inkscape:showpageshadow="2"
     inkscape:pagecheckerboard="0"
     inkscape:deskcolor="#d1d1d1" />
  <g
     id="g4007"
     transform="matrix(0.9,0,0,0.9,15.2,17.55)">
    <g
       id="g3990"
       transform="translate(0.004461,-4.6452726)">
      <path
         d="m 154.76455,293.80397 c -6.93631,0 -12.5593,14.80922 -12.5593,33.07732 0,18.2681 5.62299,33.07732 12.55931,33.07732 6.93631,0 12.5593,-14.80922 12.5593,-33.07732 0,-18.2681 -5.62299,-33.07732 -12.55931,-33.07732 z"
         id="path356"
         style="fill:#0f1689;fill-rule:evenodd" />
      <path
         d="m 154.76455,66.48657 c -6.93631,0 -12.5593,-14.80922 -12.5593,-33.077318 0,-18.268097 5.62299,-33.0773167 12.55931,-33.0773167 6.93631,0 12.5593,14.8092197 12.5593,33.0773167 0,18.268098 -5.62299,33.077318 -12.55931,33.077318 z"
         id="path368"
         style="fill:#0f1689;fill-rule:evenodd" />
      <circle
         style="fill:none;stroke:#0f1689;stroke-width:21.9695;stroke-linecap:butt;stroke-miterlimit:4;stroke-dasharray:none;stroke-opacity:1"
         id="path1257"
         cx="153.0625"
         cy="177.08929"
         r="115.51527" />
      <path
         d="m 262.90484,172.19196 c 0,-6.93631 14.80922,-12.5593 33.07732,-12.5593 18.26809,0 33.07731,5.62299 33.07731,12.55931 0,6.93631 -14.80922,12.5593 -33.07731,12.5593 -18.2681,0 -33.07732,-5.62299 -33.07732,-12.55931 z"
         id="path368-3"
         style="fill:#0f1689;fill-rule:evenodd" />
      <path
         d="m -25.068392,172.19196 c 0,-6.93631 14.809221,-12.5593 33.0773203,-12.5593 18.2680897,0 33.0773097,5.62299 33.0773097,12.55931 0,6.93631 -14.80921,12.5593 -33.0773097,12.5593 -18.2680993,0 -33.0773203,-5.62299 -33.0773203,-12.55931 z"
         id="path368-3-2"
         style="fill:#0f1689;fill-rule:evenodd" />
      <path
         d="m 213.63098,78.092223 c -6.00702,-3.468155 -3.47206,-19.104808 5.66199,-34.925445 9.13404,-15.820636 21.4083,-25.834303 27.41533,-22.366143 6.00702,3.468155 3.47206,19.10481 -5.66198,34.925446 -9.13405,15.820637 -21.40831,25.834302 -27.41534,22.366142 z"
         id="path368-0"
         style="fill:#0f1689;fill-rule:evenodd" />
      <path
         d="m 96.627947,78.092223 c 6.007023,-3.468155 3.472063,-19.104808 -5.66199,-34.925445 -9.13404,-15.820636 -21.4083,-25.834303 -27.41533,-22.366143 -6.007019,3.468155 -3.472059,19.10481 5.66198,34.925446 9.13405,15.820637 21.40831,25.834302 27.41534,22.366142 z"
         id="path368-0-8"
         style="fill:#0f1689;fill-rule:evenodd" />
      <path
         d="m 96.627947,276.38992 c 6.007023,3.46816 3.472063,19.10481 -5.66199,34.92545 -9.13404,15.82063 -21.4083,25.8343 -27.41533,22.36614 -6.007019,-3.46815 -3.472059,-19.10481 5.66198,-34.92544 9.13405,-15.82064 21.40831,-25.83431 27.41534,-22.36615 z"
         id="path368-0-8-6"
         style="fill:#0f1689;fill-rule:evenodd" />
      <path
         d="m 213.63098,276.38992 c -6.00702,3.46816 -3.47206,19.10481 5.66199,34.92545 9.13404,15.82063 21.4083,25.8343 27.41533,22.36614 6.00702,-3.46815 3.47206,-19.10481 -5.66198,-34.92544 -9.13405,-15.82064 -21.40831,-25.83431 -27.41534,-22.36615 z"
         id="path368-0-8-6-7"
         style="fill:#0f1689;fill-rule:evenodd" />
      <path
         d="m 52.672588,237.65778 c -3.46815,-6.00703 -19.10482,-3.47207 -34.92546,5.66198 -15.8206205,9.13405 -25.8343009,21.4083 -22.3661409,27.41533 3.46815,6.00703 19.1048209,3.47207 34.9254509,-5.66198 15.82063,-9.13405 25.83431,-21.4083 22.36615,-27.41533 z"
         id="path368-0-8-6-7-5"
         style="fill:#0f1689;fill-rule:evenodd" />
      <path
         d="m 311.74401,270.73509 c -3.46815,6.00703 -19.10482,3.47207 -34.92546,-5.66198 -15.82062,-9.13405 -25.8343,-21.4083 -22.36614,-27.41533 3.46815,-6.00703 19.10482,-3.47207 34.92545,5.66198 15.82063,9.13405 25.83431,21.4083 22.36615,27.41533 z"
         id="path368-0-8-6-7-5-3"
         style="fill:#0f1689;fill-rule:evenodd" />
      <path
         d="m 311.74401,82.354205 c -3.46815,-6.00703 -19.10482,-3.47207 -34.92546,5.66198 -15.82062,9.13405 -25.8343,21.408295 -22.36614,27.415325 3.46815,6.00703 19.10482,3.47207 34.92545,-5.66198 15.82063,-9.13405 25.83431,-21.408295 22.36615,-27.415325 z"
         id="path368-0-8-6-7-5-7"
         style="fill:#0f1689;fill-rule:evenodd" />
      <path
         d="m 52.672584,115.43151 c -3.46815,6.00703 -19.104817,3.47207 -34.925457,-5.66198 C 1.9265071,100.63548 -8.0871729,88.361235 -4.6190129,82.354205 c 3.46815,-6.00703 19.1048199,-3.47207 34.9254499,5.66198 15.82063,9.13405 25.834307,21.408295 22.366147,27.415325 z"
         id="path368-0-8-6-7-5-3-5"
         style="fill:#0f1689;fill-rule:evenodd" />
    </g>
    <path
       id="path140-0-3"
       style="color:#000000;font-style:normal;font-variant:normal;font-weight:normal;font-stretch:normal;font-size:medium;line-height:normal;font-family:sans-serif;font-variant-ligatures:normal;font-variant-position:normal;font-variant-caps:normal;font-variant-numeric:normal;font-variant-alternates:normal;font-variant-east-asian:normal;font-feature-settings:normal;font-variation-settings:normal;text-indent:0;text-align:start;text-decoration:none;text-decoration-line:none;text-decoration-style:solid;text-decoration-color:#000000;letter-spacing:normal;word-spacing:normal;text-transform:none;writing-mode:lr-tb;direction:ltr;text-orientation:mixed;dominant-baseline:auto;baseline-shift:baseline;text-anchor:start;white-space:normal;shape-padding:0;shape-margin:0;inline-size:0;clip-rule:nonzero;display:inline;overflow:visible;visibility:visible;isolation:auto;mix-blend-mode:normal;color-interpolation:sRGB;color-interpolation-filters:linearRGB;solid-color:#000000;solid-opacity:1;vector-effect:none;fill:url(#linearGradient3970);fill-opacity:1;fill-rule:nonzero;stroke:#ffffff;stroke-width:1.3122;stroke-linecap:round;stroke-linejoin:miter;stroke-miterlimit:4;stroke-dasharray:none;stroke-dashoffset:0;stroke-opacity:0.461538;color-rendering:auto;image-rendering:auto;shape-rendering:auto;text-rendering:auto;enable-background:accumulate;stop-color:#000000"
       d="m 197.07545,83.293889 a 5.9049,5.9049 0 0 0 -5.72293,4.837458 l -6.70453,36.460953 h 12.00842 l 6.31111,-34.32607 a 5.9049,5.9049 0 0 0 -4.73877,-6.87495 5.9049,5.9049 0 0 0 -1.1533,-0.09739 z m -90.30986,0.0282 a 5.9049,5.9049 0 0 0 -0.99313,0.09739 5.9049,5.9049 0 0 0 -4.74006,6.87495 l 6.31112,34.326071 h 12.00842 l -6.70452,-36.460964 a 5.9049,5.9049 0 0 0 -5.88183,-4.837452 z m 45.62586,18.047861 a 6.561,6.561 0 0 0 -6.561,6.561 v 42.73748 l -12.8388,-8.90476 h 7.12868 c 0.004,-4.17999 0.005,-7.31622 0.0102,-11.8098 H 97.044538 a 5.9049,5.9049 0 0 0 -5.9049,5.9049 5.9049,5.9049 0 0 0 5.9049,5.9049 h 11.326702 l -8.434476,35.37174 a 5.9049,5.9049 0 0 0 -0.60741,2.55007 l -13.73325,57.58815 a 5.9049,5.9049 0 0 0 4.374856,7.11331 5.9049,5.9049 0 0 0 7.113302,-4.37358 l 11.985368,-50.26212 36.76082,26.2991 v 45.09534 a 6.561,6.561 0 0 0 6.561,6.561 6.561,6.561 0 0 0 6.561,-6.561 v -45.65406 l 35.97785,-25.74167 11.98537,50.26341 a 5.9049,5.9049 0 0 0 7.11458,4.37358 5.9049,5.9049 0 0 0 4.37358,-7.11331 l -13.73198,-57.58815 a 5.9049,5.9049 0 0 0 -0.60996,-2.55264 l -8.43448,-35.36917 h 11.38821 a 5.9049,5.9049 0 0 0 5.9049,-5.9049 5.9049,5.9049 0 0 0 -5.9049,-5.9049 h -41.95324 c -0.004,4.49459 -0.005,7.62901 -0.0102,11.8098 h 5.95744 l -12.05711,8.36271 v -42.19543 a 6.561,6.561 0 0 0 -6.561,-6.561 z m -33.04848,45.30038 26.48748,18.3708 v 36.48786 l -18.32723,-13.11303 h 12.38004 c 0.003,-3.11226 0.009,-8.42622 0.0115,-11.8098 h -27.69073 z m 65.31527,0 7.13765,29.93583 h -26.9693 c -0.004,3.38376 -0.01,8.69761 -0.0115,11.8098 h 11.68423 l -17.54682,12.55433 v -36.47122 z" />
  </g>
</svg>
